<?xml version="1.0" encoding="UTF-8"?>
<svg version="1.1" xmlns="http://www.w3.org/2000/svg" width="882" height="584">
<path d="M0 0 C0.67431313 -0.00201888 1.34862625 -0.00403776 2.04337311 -0.00611782 C4.26893696 -0.00905325 6.49376112 0.00944492 8.71923828 0.02832031 C10.30245812 0.03100974 11.88568049 0.03246265 13.46890259 0.03276062 C17.70067066 0.03765001 21.93212144 0.06176836 26.16378784 0.09034348 C29.6730508 0.11186316 33.18231414 0.12258808 36.69162369 0.13344097 C68.06491089 0.23321363 99.43750269 0.60307547 130.79101562 1.77294922 C132.12385809 1.82168532 133.45670357 1.87033908 134.78955078 1.91894531 C135.76573364 1.95566849 136.7419165 1.99239166 137.74768066 2.03022766 C159.80525813 2.82169708 181.83546218 2.22782302 203.8864994 1.57270432 C234.04379136 0.68062318 264.19472556 0.11603086 294.36554718 0.0513916 C296.90639829 0.04396913 299.44715842 0.03072696 301.98797607 0.01586914 C305.97378375 -0.0064907 309.95930811 -0.01313718 313.94517136 -0.00707054 C315.40312871 -0.00691643 316.86109619 -0.01160943 318.31901932 -0.02160072 C332.29724302 -0.10828609 332.29724302 -0.10828609 337.91455078 3.35644531 C339.03955078 5.85644531 339.03955078 5.85644531 338.91455078 8.35644531 C337.29363155 11.27409993 335.48734899 11.48190052 332.27905273 12.42407227 C328.18520442 13.40068953 324.21781584 13.63035549 320.02001953 13.58691406 C318.88035484 13.58683853 318.88035484 13.58683853 317.71766663 13.58676147 C315.17897153 13.58311121 312.64066599 13.56397401 310.10205078 13.54394531 C308.27164869 13.53631967 306.44124492 13.52908853 304.61083984 13.5222168 C258.73749462 13.29566917 212.73323644 12.77608377 166.91455078 10.35644531 C166.91455078 12.00644531 166.91455078 13.65644531 166.91455078 15.35644531 C179.12455078 15.35644531 191.33455078 15.35644531 203.91455078 15.35644531 C203.91455078 24.26644531 203.91455078 33.17644531 203.91455078 42.35644531 C197.64455078 42.35644531 191.37455078 42.35644531 184.91455078 42.35644531 C184.91455078 50.60644531 184.91455078 58.85644531 184.91455078 67.35644531 C186.71999139 67.35367993 188.525432 67.35091455 190.38558292 67.34806538 C233.27668144 67.28304289 276.16777454 67.23359927 319.05891225 67.20324932 C324.34209068 67.19949736 329.625269 67.19561438 334.90844727 67.19165039 C335.96019962 67.19086346 337.01195198 67.19007653 338.09557562 67.18926575 C355.10858924 67.17622426 372.12157233 67.15257735 389.13456786 67.12498692 C406.60124007 67.09689774 424.06789632 67.08026163 441.53459018 67.07417983 C452.30592921 67.07007067 463.07718195 67.05710855 473.8484944 67.03269591 C481.24232792 67.01679534 488.63611706 67.01205471 496.02996642 67.01594118 C500.29101948 67.01785601 504.55192214 67.01499323 508.81294823 66.99882889 C512.72375604 66.98410243 516.634314 66.98357443 520.54513394 66.99374863 C521.950511 66.99500387 523.35590442 66.99130692 524.76124985 66.98179577 C547.08812249 66.83963342 566.34456949 72.98025763 582.72705078 88.66894531 C595.72769924 102.24947881 602.70789796 119.54124089 603.28955078 138.35644531 C602.67443418 158.25413014 594.86794633 176.17509085 580.73608398 190.0715332 C569.44322986 200.65912679 553.9972287 208.45220078 538.28613567 208.49511051 C536.59394784 208.50332218 536.59394784 208.50332218 534.86757439 208.51169974 C533.0159291 208.5131669 533.0159291 208.5131669 531.12687683 208.5146637 C529.15423818 208.52207066 529.15423818 208.52207066 527.14174825 208.52962726 C523.49314292 208.54319518 519.84454691 208.55062283 516.19592297 208.55705392 C512.26072101 208.56506378 508.32553838 208.57875954 504.39035034 208.59176636 C497.57290948 208.61352079 490.75546665 208.63166906 483.93800926 208.64737129 C474.08109821 208.67007932 464.22420857 208.69822086 454.36731569 208.72769057 C438.37533905 208.77535503 422.38335366 208.81862233 406.39135742 208.85913086 C390.85619424 208.89849161 375.32103884 208.93991923 359.78588867 208.98413086 C358.34962073 208.98821727 358.34962073 208.98821727 356.88433727 208.99238623 C352.08080347 209.0060658 347.27726979 209.01978606 342.47373617 209.03352654 C302.62069056 209.14747332 262.76762825 209.25428666 222.91455078 209.35644531 C222.80178645 210.50636554 222.68902212 211.65628576 222.57284069 212.84105206 C222.14869381 217.16027227 221.72163652 221.47920084 221.29375744 225.79805279 C221.10994378 227.65741079 220.92689026 229.51684412 220.74465084 231.37635708 C219.45338338 244.54507232 217.97598757 257.62454394 215.72705078 270.66894531 C215.50870575 271.96921158 215.50870575 271.96921158 215.28594971 273.29574585 C206.96520388 322.79571552 194.88731459 371.63351632 181.72705078 420.04394531 C181.3990448 421.25481812 181.07103882 422.46569092 180.73309326 423.71325684 C179.80719615 427.12105721 178.87264055 430.52633167 177.93408203 433.93066406 C177.65757309 434.94672226 177.38106415 435.96278046 177.09617615 437.0096283 C176.83748245 437.93836258 176.57878876 438.86709686 176.31225586 439.82397461 C176.08943436 440.63150681 175.86661285 441.439039 175.63703918 442.27104187 C174.91455078 444.35644531 174.91455078 444.35644531 172.91455078 447.35644531 C172.50205078 446.57269531 172.08955078 445.78894531 171.66455078 444.98144531 C169.78979681 442.16931435 168.96900634 441.56504284 165.91455078 440.35644531 C162.86343882 439.89448118 159.96643166 439.88909086 156.91455078 440.35644531 C154.47543668 442.04476547 154.47543668 442.04476547 152.91455078 444.35644531 C151.92546552 445.3672422 150.92719858 446.36925514 149.91455078 447.35644531 C127.70424752 373.86647127 108.44166656 297.00709257 101.86523438 220.38891602 C101.77340378 219.3256736 101.68157318 218.26243118 101.58695984 217.1669693 C101.36219395 214.56351491 101.13807387 211.96000665 100.91455078 209.35644531 C100.24199713 209.3554685 99.56944349 209.3544917 98.87650943 209.35348529 C58.99396808 209.29518247 19.11148235 209.22136238 -20.77099176 209.12745903 C-25.56233409 209.1161912 -30.35367671 209.10505269 -35.14501953 209.09399414 C-36.57579303 209.09068862 -36.57579303 209.09068862 -38.03547105 209.08731631 C-53.46942098 209.0519674 -68.90337086 209.02708969 -84.33734623 209.00609829 C-100.18021037 208.98431707 -116.02302209 208.9512446 -131.86584163 208.90774375 C-141.63756905 208.88126703 -151.40923119 208.86354236 -161.18099269 208.85709927 C-167.88662579 208.85183321 -174.59217681 208.83557538 -181.29776588 208.81077965 C-185.16350114 208.79680635 -189.02908961 208.78757818 -192.89485168 208.79143715 C-197.09470871 208.7955023 -201.29415205 208.77636908 -205.49395752 208.75517273 C-206.70410688 208.76002031 -207.91425623 208.76486788 -209.16107678 208.76986235 C-219.88569617 208.68078835 -229.67738719 206.6492525 -239.21044922 201.66894531 C-239.88857666 201.32009277 -240.5667041 200.97124023 -241.26538086 200.61181641 C-258.97605677 191.21982325 -270.64258983 176.08398531 -276.57666016 157.13916016 C-281.25121182 141.18330313 -280.01832654 122.8543309 -272.52685547 107.93847656 C-262.21037655 89.45827991 -248.56069217 76.26541217 -228.02294922 70.16894531 C-221.24738108 68.25593338 -214.75641138 67.23089652 -207.71118259 67.23339748 C-206.46760662 67.23140644 -205.22403064 67.22941539 -203.94277054 67.227364 C-202.57598767 67.23021648 -201.20920498 67.23316207 -199.84242249 67.2361908 C-198.38032638 67.23575446 -196.91823035 67.23487839 -195.45613474 67.23360163 C-191.44718459 67.231369 -187.43826123 67.2353611 -183.42931449 67.24037969 C-179.10288042 67.24470169 -174.77644783 67.24323652 -170.45001221 67.24247742 C-162.95706385 67.24195329 -155.46412422 67.24508847 -147.97117805 67.25071526 C-137.13766082 67.25884533 -126.30414779 67.26144702 -115.47062784 67.26270325 C-97.89358349 67.26489139 -80.31654378 67.27154506 -62.73950195 67.28100586 C-45.66593448 67.29018611 -28.59236827 67.29726395 -11.51879883 67.30151367 C-9.93994327 67.30190776 -9.93994327 67.30190776 -8.32919163 67.3023098 C-3.04870893 67.30361485 2.23177378 67.30487856 7.5122565 67.30612171 C51.31302451 67.31648693 95.11378733 67.33417319 138.91455078 67.35644531 C138.91455078 59.10644531 138.91455078 50.85644531 138.91455078 42.35644531 C133.03572075 42.39602301 133.03572075 42.39602301 127.15698242 42.4465332 C126.42858154 42.44903076 125.70018066 42.45152832 124.94970703 42.45410156 C124.20084229 42.45933838 123.45197754 42.4645752 122.68041992 42.4699707 C120.91455078 42.35644531 120.91455078 42.35644531 119.91455078 41.35644531 C119.82706871 39.42977024 119.80757744 37.4999267 119.81689453 35.57128906 C119.82011719 34.40146484 119.82333984 33.23164062 119.82666016 32.02636719 C119.83503906 30.79466797 119.84341797 29.56296875 119.85205078 28.29394531 C119.8565625 27.05837891 119.86107422 25.8228125 119.86572266 24.54980469 C119.8775547 21.48530414 119.89403905 18.4208981 119.91455078 15.35644531 C124.54079196 15.18850225 129.16720933 15.02797814 133.79394531 14.87426758 C135.36725762 14.82095967 136.94050309 14.76563942 138.51367188 14.70825195 C140.77735997 14.62602702 143.04119117 14.55108641 145.30517578 14.47753906 C146.00636536 14.450504 146.70755493 14.42346893 147.42999268 14.39561462 C150.76197615 14.29421814 153.73164601 14.29666648 156.91455078 15.35644531 C156.91455078 13.70644531 156.91455078 12.05644531 156.91455078 10.35644531 C155.85107422 10.41703125 154.78759766 10.47761719 153.69189453 10.54003906 C108.19653839 12.9859199 62.4646516 13.35691889 16.91424561 13.53268433 C15.18965972 13.54008349 13.46508399 13.55066731 11.74053955 13.56472778 C-9.21812395 13.72278355 -9.21812395 13.72278355 -13.80273438 9.93920898 C-15.08544922 8.35644531 -15.08544922 8.35644531 -15.21044922 5.85644531 C-13.79528935 2.71164559 -12.15680838 2.19910283 -9.04095078 0.96030426 C-6.00105286 0.02158368 -3.17044154 -0.00959543 0 0 Z " fill="#FFFFFF" transform="translate(279.08544921875,-0.3564453125)"/>
<path d="M0 0 C1.36091605 0.00056517 2.72183271 0.00024549 4.08274841 -0.00088501 C7.75157432 -0.0014554 11.42026765 0.01024769 15.08906293 0.02426291 C18.93273563 0.03682293 22.77641187 0.0379449 26.62010193 0.04031372 C33.88718779 0.04651307 41.15421299 0.06290283 48.42127222 0.0830127 C58.24936137 0.10961533 68.07746727 0.12035684 77.90558338 0.13201714 C93.37386854 0.15078464 108.84202573 0.19064056 124.31030273 0.22705078 C124.31030273 32.56705078 124.31030273 64.90705078 124.31030273 98.22705078 C89.43474379 98.38826292 89.43474379 98.38826292 74.77514648 98.42236328 C64.66910648 98.44606076 54.56320026 98.47385842 44.45727539 98.52880859 C37.09585296 98.5688165 29.73453949 98.59451666 22.37301135 98.60340476 C18.47909976 98.60859604 14.58549976 98.62070094 10.69168854 98.64997101 C7.01774384 98.67736147 3.34423555 98.68544882 -0.32980156 98.67948151 C-2.30279519 98.68108627 -4.2757426 98.7024843 -6.24861145 98.72473145 C-20.08737984 98.66147168 -31.97476835 94.36605965 -42.20141602 84.90283203 C-51.50287517 75.10939487 -56.61062724 63.37216711 -57.06469727 49.78955078 C-56.53411081 34.4246512 -50.90585635 22.30143116 -39.82250977 11.74658203 C-28.16282074 1.85859879 -14.77911581 -0.08447237 0 0 Z " fill="#FFFFFF" transform="translate(304.689697265625,458.77294921875)"/>
<path d="M0 0 C34.33370704 -0.16121214 34.33370704 -0.16121214 48.77539062 -0.1953125 C58.72770479 -0.21900178 68.679883 -0.24677618 78.63208008 -0.30175781 C85.88181077 -0.34179018 93.13143064 -0.3674716 100.3812688 -0.37635398 C104.21541087 -0.38154118 108.04923608 -0.39361941 111.88327599 -0.42292023 C115.50223352 -0.45034964 119.12074787 -0.45839044 122.7397995 -0.45243073 C124.6803965 -0.45403223 126.62094677 -0.47540949 128.56141663 -0.49768066 C143.6044808 -0.4280209 156.11773111 4.3304834 167.1875 14.5 C176.43419887 24.16898905 180.82057689 36.11199614 181.3125 49.375 C180.98565752 63.0254802 175.57962409 75.04160841 166.25390625 84.93359375 C154.78446312 95.44890643 141.91342581 98.62572036 126.69433594 98.45410156 C125.30342136 98.45297024 123.91250439 98.45361248 122.52159119 98.45587158 C118.78460254 98.45700859 115.04813855 98.43366607 111.31127071 98.40557575 C107.39156263 98.38039087 103.4718395 98.37820675 99.55206299 98.37347412 C92.14686919 98.36109412 84.74191458 98.32834075 77.33682561 98.28807616 C67.31802925 98.23479457 57.29916643 98.21337272 47.2802639 98.19006729 C31.51999714 98.15257503 15.76023488 98.07285163 0 98 C0 65.66 0 33.32 0 0 Z " fill="#FFFFFF" transform="translate(453,459)"/>
<path d="M0 0 C1.423125 0.4021875 1.423125 0.4021875 2.875 0.8125 C4.15900729 3.38051458 4.00376908 5.20565633 4.00871277 8.08201599 C4.01297775 9.19951233 4.01724274 10.31700867 4.02163696 11.46836853 C4.02118378 12.70011307 4.02073059 13.9318576 4.02026367 15.20092773 C4.02362228 16.49362579 4.0269809 17.78632385 4.03044128 19.11819458 C4.0392912 22.66982192 4.04161981 26.22142517 4.04225707 29.77306247 C4.04320543 32.73539392 4.04688286 35.69771973 4.05042917 38.66004902 C4.05857741 45.64747373 4.06101305 52.63488554 4.06030273 59.62231445 C4.05970176 66.83640055 4.07025661 74.05041192 4.0860464 81.2644791 C4.09911024 87.45305371 4.10448712 93.64160385 4.10384732 99.83019215 C4.10359201 103.52861567 4.10646181 107.22697279 4.11702538 110.92538261 C4.12848019 115.0485332 4.12396665 119.1715157 4.11791992 123.29467773 C4.12353943 124.52439804 4.12915894 125.75411835 4.13494873 127.02110291 C4.128657 128.70157715 4.128657 128.70157715 4.12223816 130.41600037 C4.12278293 131.39142509 4.12332769 132.3668498 4.12388897 133.37183285 C3.875 135.8125 3.875 135.8125 1.875 138.8125 C-1.125 139.1875 -1.125 139.1875 -4.125 138.8125 C-6.3654436 135.45183459 -6.37741745 134.35125547 -6.38569641 130.42272949 C-6.39278122 129.30385849 -6.39986603 128.18498749 -6.40716553 127.0322113 C-6.40468811 125.80406204 -6.40221069 124.57591278 -6.3996582 123.31054688 C-6.40476913 122.01770279 -6.40988007 120.7248587 -6.41514587 119.39283752 C-6.42854774 115.84537752 -6.42911333 112.29802398 -6.42658257 108.75054359 C-6.42551384 105.79064114 -6.43039364 102.83076031 -6.435188 99.87086248 C-6.44628691 92.8896406 -6.44671819 85.90847253 -6.44067383 78.92724609 C-6.43463026 71.72047872 -6.44695376 64.51390639 -6.4682439 57.3071723 C-6.48584325 51.12281469 -6.49186397 44.93851926 -6.48860615 38.75413752 C-6.48679075 35.05905512 -6.48945504 31.3641119 -6.50332069 27.66905212 C-6.51819629 23.55072298 -6.5089436 19.43279264 -6.49731445 15.31445312 C-6.50495819 14.08630386 -6.51260193 12.8581546 -6.52047729 11.5927887 C-6.51346298 10.47391769 -6.50644867 9.35504669 -6.4992218 8.20227051 C-6.49938954 7.22814461 -6.49955729 6.25401871 -6.49973011 5.25037384 C-6.125 2.8125 -6.125 2.8125 -4.79692364 0.96392059 C-3.125 -0.1875 -3.125 -0.1875 0 0 Z " fill="#FFFFFF" transform="translate(442.125,445.1875)"/>
</svg>
